<?xml version="1.0" encoding="UTF-8"?>
<!DOCTYPE svg PUBLIC "-//W3C//DTD SVG 1.1//EN" "http://www.w3.org/Graphics/SVG/1.1/DTD/svg11.dtd">
<!-- Creator: CorelDRAW X7 -->
<svg xmlns="http://www.w3.org/2000/svg" xml:space="preserve" width="161.316mm" height="114.497mm" version="1.1" style="shape-rendering:geometricPrecision; text-rendering:geometricPrecision; image-rendering:optimizeQuality; fill-rule:evenodd; clip-rule:evenodd"
viewBox="0 0 21480 15246"
 xmlns:xlink="http://www.w3.org/1999/xlink">
 <defs>
  <style type="text/css">
   <![CDATA[
    .str0 {stroke:#FEFEFE;stroke-width:281.864}
    .fil0 {fill:none}
    .fil4 {fill:none;fill-rule:nonzero}
    .fil5 {fill:#00A859;fill-rule:nonzero}
    .fil1 {fill:#3E4095;fill-rule:nonzero}
    .fil3 {fill:url(#id0)}
    .fil2 {fill:url(#id1)}
   ]]>
  </style>
  <linearGradient id="id0" gradientUnits="userSpaceOnUse" x1="14396.5" y1="5200.35" x2="11667.8" y2="7207.7">
   <stop offset="0" style="stop-opacity:1; stop-color:#3E4095"/>
   <stop offset="1" style="stop-opacity:1; stop-color:#FEFEFE"/>
  </linearGradient>
  <linearGradient id="id1" gradientUnits="userSpaceOnUse" x1="6637.39" y1="7286.22" x2="9366.07" y2="5278.87">
   <stop offset="0" style="stop-opacity:1; stop-color:#ED3237"/>
   <stop offset="1" style="stop-opacity:1; stop-color:#FEFEFE"/>
  </linearGradient>
 </defs>
 <g id="Layer_x0020_1">
  <metadata id="CorelCorpID_0Corel-Layer"/>
  <g id="_1030882064">
   <path class="fil0" d="M10517 15c4661,0 8440,2789 8440,6228 0,3440 -3779,6229 -8440,6229 -4661,0 -8440,-2789 -8440,-6229 0,-3439 3779,-6228 8440,-6228z"/>
   <path class="fil1" d="M362 8137c59,-20 117,-30 173,-30 55,0 107,8 156,23 48,16 92,37 132,64 39,27 72,57 99,91 27,33 47,68 60,105 19,56 28,105 28,148 1,43 -5,80 -15,113 -12,32 -24,59 -39,84 -14,23 -27,45 -38,63 -10,19 -15,36 -15,51 1,15 11,31 30,46 -67,33 -123,43 -170,28 -47,-16 -81,-53 -102,-113 -6,-19 -9,-42 -9,-66 0,-24 2,-48 5,-73 2,-25 5,-48 6,-70 1,-21 -1,-40 -5,-55 -11,-30 -29,-51 -53,-63 -24,-12 -51,-13 -81,-4 -30,11 -53,28 -70,52 -17,23 -29,52 -34,84 -5,33 -5,68 0,106 5,39 14,78 28,118 11,32 26,64 45,97 18,32 41,62 67,90 27,27 57,50 91,68 33,19 71,29 112,33 41,3 85,-3 133,-19 62,-22 113,-52 154,-91 40,-38 72,-82 95,-133 23,-51 41,-105 53,-164 12,-58 21,-118 27,-179 6,-62 12,-124 17,-184 6,-61 14,-120 24,-175 9,-57 24,-110 42,-161 19,-50 45,-94 78,-131 33,-38 76,-66 128,-85 21,-7 42,-12 67,-15 25,-2 50,1 76,11 26,10 52,30 77,61 25,30 48,76 69,135l225 653c18,50 32,95 45,134 11,40 18,75 21,105 2,30 -3,55 -14,75 -12,20 -33,36 -63,46 -24,7 -47,8 -69,3 -23,-6 -44,-16 -65,-30 -20,-13 -40,-29 -58,-45 -19,-16 -37,-31 -53,-44 -17,-13 -33,-22 -47,-27 -15,-2 -28,0 -38,5 -9,5 -18,14 -25,26 -8,12 -16,27 -24,45 -12,-19 -22,-40 -29,-63 -7,-23 -10,-47 -8,-70 2,-23 9,-45 23,-64 15,-19 36,-34 66,-44 17,-6 34,-8 51,-6 18,1 34,4 50,7 16,3 30,5 42,5 12,0 20,-4 26,-12 6,-8 7,-23 5,-45 -3,-21 -11,-51 -25,-91l-109 -318c-7,-20 -14,-40 -23,-60 -7,-21 -17,-39 -28,-56 -11,-16 -24,-27 -38,-35 -15,-7 -32,-7 -51,-1 -16,6 -30,24 -41,52 -11,29 -20,65 -27,108 -8,43 -14,89 -19,139 -5,49 -9,98 -13,145 -5,48 -9,91 -13,128 -12,94 -32,184 -58,271 -26,86 -61,166 -104,239 -43,72 -96,135 -159,186 -64,53 -138,91 -224,116 -62,16 -122,27 -182,34 -60,8 -118,8 -175,2 -56,-7 -110,-23 -162,-49 -52,-25 -101,-64 -146,-114 -30,-39 -53,-75 -69,-108 -16,-33 -29,-64 -37,-94 -9,-30 -16,-61 -23,-91 -7,-31 -17,-64 -28,-99 -13,-34 -25,-65 -38,-92 -14,-27 -26,-52 -37,-76 -11,-23 -20,-47 -26,-71 -7,-24 -10,-51 -9,-79 0,-50 8,-99 23,-150 15,-50 38,-97 68,-143 30,-45 68,-85 113,-121 45,-36 98,-64 158,-86zm683 1387c31,-23 70,-49 116,-75 46,-27 98,-51 155,-73 57,-21 118,-36 182,-43 65,-7 132,-4 200,11 69,15 138,45 207,91 70,46 138,111 204,196 11,15 24,35 40,60 16,25 31,53 46,85 15,33 28,67 37,103 9,36 13,72 11,109 -1,37 -11,73 -29,108 -18,35 -47,67 -87,96 -40,29 -81,45 -124,50 -43,5 -83,0 -120,-16 -38,-15 -70,-40 -95,-74 -24,-35 -39,-66 -44,-96 -5,-30 -6,-57 -2,-80 4,-23 7,-43 11,-59 2,-15 1,-26 -7,-32 -7,-7 -24,-7 -51,-2 1,-27 8,-50 21,-67 14,-18 30,-30 50,-38 19,-7 39,-9 58,-5 19,4 35,14 48,31 12,17 22,35 30,51 8,17 16,32 23,44 6,13 15,22 25,27 9,6 22,6 38,1 16,-5 26,-17 32,-34 6,-18 7,-38 5,-63 -3,-24 -10,-49 -20,-74 -10,-26 -23,-50 -38,-71 -35,-47 -73,-83 -114,-106 -42,-23 -85,-36 -130,-40 -45,-2 -91,2 -138,14 -46,13 -91,31 -136,54 -46,24 -89,51 -130,81 -50,31 -87,66 -113,106 -26,40 -41,83 -47,127 -6,46 -3,92 7,139 11,47 27,93 49,139 22,45 49,89 79,130 45,62 91,107 137,136 45,29 89,45 131,48 42,4 79,-2 112,-18 4,40 4,78 0,111 -4,34 -14,66 -31,94 -16,29 -41,55 -75,80 -20,15 -45,28 -74,40 -28,11 -60,18 -94,22 -34,3 -70,0 -107,-9 -37,-9 -74,-27 -111,-53 -38,-25 -74,-62 -109,-109 -16,-23 -30,-46 -42,-67 -11,-22 -23,-44 -35,-66 -11,-22 -26,-45 -42,-68 -17,-22 -39,-47 -67,-74 -28,-28 -55,-58 -83,-89 -27,-31 -49,-63 -65,-96 -20,-58 -28,-114 -24,-170 4,-55 17,-109 38,-161 22,-51 48,-99 81,-143 32,-45 67,-86 104,-122 37,-36 72,-66 107,-91zm1756 570c20,-18 42,-29 64,-31 22,-3 46,4 73,22 27,17 58,47 94,90 11,12 22,26 34,43 12,17 22,36 29,56 7,20 8,41 4,62 -5,21 -19,42 -43,62 -22,18 -45,27 -70,26 -25,0 -50,-9 -75,-24 -25,-16 -48,-37 -71,-64 -23,-27 -43,-56 -59,-84 -15,-28 -23,-56 -22,-83 1,-27 15,-52 42,-75zm-1129 975l772 -648c-19,-40 -29,-75 -32,-106 -2,-31 2,-55 12,-73 10,-18 25,-25 44,-23 18,2 40,17 64,45l283 337c27,33 44,62 51,88 7,26 4,45 -8,58 -12,13 -34,16 -65,9 -30,-7 -70,-28 -119,-61l-756 634c-8,7 -12,17 -13,29 -2,12 -1,26 2,41 2,16 5,31 8,47 2,17 3,33 2,48 6,30 2,50 -11,60 -13,10 -31,12 -55,7 -23,-6 -47,-18 -72,-36 -22,-16 -41,-34 -57,-53 -15,-19 -30,-39 -44,-59 -13,-21 -29,-42 -46,-63 -19,-22 -38,-42 -58,-62 -19,-19 -37,-38 -54,-57 -16,-19 -29,-38 -37,-59 -7,-16 -12,-34 -14,-52 -3,-18 -3,-35 0,-50 3,-15 9,-26 20,-31 11,-7 28,-5 49,3 14,6 27,11 41,14 12,4 26,6 41,8 15,2 32,4 52,5zm737 227c72,-85 149,-155 233,-208 83,-53 168,-89 255,-109 86,-19 171,-20 252,-2 82,18 158,55 227,113l290 243c52,44 90,84 114,120 25,36 38,68 43,98 3,30 0,56 -10,80 -10,24 -24,46 -41,66 -22,27 -48,50 -78,66 -29,17 -66,27 -110,31 -43,5 -98,2 -162,-7 -26,-3 -56,-10 -92,-19 -37,-10 -77,-21 -120,-32 -44,-12 -89,-23 -137,-32 -48,-9 -96,-15 -144,-17 -49,-2 -96,2 -142,11 -46,10 -89,27 -130,53 21,57 47,107 79,150 32,43 68,82 109,116 45,37 88,64 131,82 42,18 82,29 120,32 36,3 69,0 96,-8 28,-8 49,-21 63,-38 12,29 23,58 31,88 9,29 10,61 3,93 -6,33 -24,68 -55,105 -13,17 -31,35 -54,55 -23,20 -50,38 -81,54 -31,17 -66,28 -103,33 -37,6 -76,2 -119,-10 -41,-12 -85,-37 -130,-74 -27,-23 -50,-45 -69,-65 -19,-20 -37,-40 -54,-59 -17,-18 -36,-37 -58,-55 -16,-13 -34,-27 -57,-41 -22,-14 -47,-31 -75,-50 -28,-19 -58,-41 -90,-68 -38,-33 -68,-73 -88,-121 -21,-47 -32,-99 -35,-155 -3,-57 2,-115 16,-175 14,-60 35,-120 63,-178 29,-59 66,-115 109,-166zm235 305c52,-38 104,-62 157,-73 53,-11 106,-13 158,-7 52,6 103,15 152,27 50,12 96,22 139,30 43,7 83,8 118,0 35,-8 64,-28 89,-62 20,-24 29,-47 28,-71 -1,-23 -9,-46 -24,-68 -15,-23 -33,-44 -54,-64 -21,-19 -43,-38 -64,-56 -51,-42 -101,-71 -149,-86 -49,-15 -95,-20 -139,-14 -43,6 -84,19 -123,39 -38,20 -73,45 -105,73 -32,28 -61,57 -85,87 -22,27 -41,56 -56,86 -16,31 -26,60 -34,88 -7,28 -10,51 -8,71zm803 1010l504 -748c12,-18 19,-36 22,-54 2,-18 1,-36 -3,-52 -4,-17 -11,-32 -19,-45 -10,-14 -15,-30 -17,-47 -2,-17 1,-33 8,-46 7,-14 19,-22 35,-24 16,-2 37,5 63,22l383 258c30,21 51,39 62,55 11,16 14,29 10,39 -4,10 -13,18 -28,23 -14,5 -31,8 -51,8 -25,-2 -48,-3 -69,-5 -21,-1 -39,0 -52,4 -13,4 -21,14 -23,29 27,18 55,27 82,26 27,-1 55,-4 84,-12 30,-8 62,-14 97,-18 35,-4 75,-1 118,10 44,11 93,34 149,71 53,36 95,76 124,122 30,46 44,98 41,155 -4,58 -28,121 -74,190l-460 682c-5,20 -6,38 -2,52 4,15 10,30 20,46 8,15 18,35 28,58 9,24 10,43 2,59 -8,15 -25,25 -50,28 -26,4 -60,0 -103,-12 -21,-6 -41,-15 -59,-28 -18,-13 -36,-26 -54,-42 -18,-16 -39,-32 -62,-47 -24,-16 -49,-32 -77,-48 -27,-15 -53,-33 -77,-53 -25,-20 -45,-43 -61,-71 -15,-27 -20,-50 -17,-67 4,-18 12,-31 26,-39 14,-8 29,-10 45,-8 23,3 46,4 69,4 22,0 44,-6 65,-17l434 -644c24,-34 32,-66 25,-97 -8,-30 -33,-60 -76,-89 -26,-16 -51,-28 -75,-34 -24,-6 -49,-11 -74,-13 -24,-2 -51,-6 -79,-11 -28,-6 -58,-16 -91,-32l-458 680c2,10 7,22 14,36 8,14 16,31 23,48 8,18 15,37 19,57 4,21 4,38 -2,50 -6,11 -15,19 -28,23 -13,4 -28,5 -44,4 -17,-2 -33,-4 -49,-9 -27,-10 -52,-23 -74,-39 -22,-15 -43,-31 -63,-47 -19,-17 -37,-31 -54,-43 -18,-11 -38,-23 -60,-35 -22,-11 -45,-25 -68,-40 -23,-15 -44,-33 -64,-54 -14,-16 -26,-33 -34,-51 -9,-18 -12,-34 -12,-49 0,-16 6,-29 18,-39 12,-11 31,-17 57,-19 25,1 47,2 64,5 17,3 32,4 43,3 12,-1 21,-8 29,-19zm1397 801l391 -840c-3,-9 -9,-18 -18,-26 -8,-9 -17,-19 -27,-31 -9,-11 -18,-26 -25,-43 -3,-10 -5,-21 -5,-32 0,-12 4,-22 10,-31 5,-9 16,-13 31,-15 23,0 45,3 66,10 20,7 40,16 59,25 9,-18 16,-35 21,-51 5,-15 6,-31 2,-45 -3,-15 -12,-29 -28,-45 -10,-5 -18,-14 -24,-26 -6,-13 -8,-26 -6,-40 2,-14 9,-26 22,-35 13,-10 33,-14 61,-12 17,3 40,5 68,5 27,0 57,-1 88,-3 32,-2 63,-4 94,-8 30,-3 57,-7 81,-11 24,-5 42,-9 54,-13 28,-10 50,-12 67,-8 17,5 28,14 35,26 6,12 6,25 2,37 -4,13 -14,22 -28,28 -17,6 -32,15 -43,26 -11,10 -21,23 -30,38 -8,15 -17,32 -25,52l-125 266c20,-1 43,1 72,4 29,4 57,11 87,19 30,9 57,21 81,35 23,15 40,32 50,52 10,21 9,44 -3,71 -12,26 -26,46 -40,61 -14,15 -28,28 -42,39 -14,11 -26,23 -37,36 -11,12 -20,30 -26,52 -6,21 -8,51 -7,88 -29,9 -56,13 -82,10 -26,-3 -49,-11 -69,-24 -21,-13 -37,-29 -50,-48 -12,-20 -19,-41 -20,-65 0,-16 3,-34 10,-54 7,-21 16,-41 28,-62 12,-20 26,-39 42,-55 -10,-5 -19,-9 -28,-13 -9,-4 -18,-9 -28,-13l-391 839c-5,12 -5,25 1,39 6,13 15,27 26,40 11,14 22,27 32,40 19,21 29,39 29,55 1,16 -6,29 -18,40 -12,10 -28,17 -48,21 -20,3 -41,3 -63,-1 -21,-2 -43,-7 -65,-14 -22,-6 -47,-16 -74,-28 -28,-12 -60,-27 -98,-45 -37,-17 -70,-32 -96,-46 -28,-13 -51,-26 -71,-38 -19,-13 -37,-27 -53,-42 -19,-25 -29,-47 -31,-66 -2,-19 3,-34 14,-44 12,-11 29,-15 50,-13 34,4 64,1 91,-10 26,-12 46,-31 59,-58zm1332 -969c9,-26 22,-45 40,-59 17,-13 42,-19 74,-17 32,1 74,12 127,31 15,5 32,12 51,20 19,9 37,20 53,34 16,14 27,31 34,52 6,21 5,46 -6,75 -10,27 -26,46 -47,58 -22,12 -48,17 -77,16 -30,-1 -61,-8 -94,-20 -34,-12 -65,-26 -93,-43 -28,-17 -48,-37 -60,-61 -13,-24 -14,-52 -2,-86zm-490 1409l345 -947c-36,-25 -63,-50 -81,-76 -18,-26 -27,-49 -26,-69 0,-20 8,-34 26,-42 17,-7 43,-5 78,7l414 150c39,15 69,32 88,51 19,19 26,37 22,54 -4,18 -21,31 -52,40 -30,10 -75,12 -133,7l-338 928c-3,10 -2,20 3,31 5,11 13,23 23,35 9,12 20,24 30,37 10,13 18,26 25,40 20,23 28,42 21,57 -6,15 -21,27 -44,33 -23,7 -50,9 -80,6 -28,-3 -53,-9 -76,-18 -23,-9 -46,-19 -68,-29 -22,-12 -46,-22 -71,-32 -27,-9 -54,-17 -81,-24 -27,-7 -52,-14 -75,-22 -24,-9 -45,-19 -63,-33 -13,-11 -26,-23 -37,-38 -12,-14 -21,-29 -26,-43 -4,-15 -4,-27 2,-38 7,-11 22,-18 44,-21 15,-2 30,-4 43,-8 12,-3 25,-8 39,-14 14,-6 30,-13 48,-22zm890 253l277 -905c5,-20 2,-38 -9,-56 -11,-17 -27,-35 -48,-54 -21,-18 -43,-38 -67,-60 -22,-22 -34,-44 -37,-66 -4,-22 2,-40 16,-53 14,-15 35,-22 64,-21 21,6 40,12 59,18 18,6 32,10 43,13 -20,-28 -35,-53 -48,-75 -13,-22 -22,-45 -27,-66 -6,-22 -7,-46 -5,-72 2,-26 9,-57 20,-92 21,-70 62,-113 121,-130 60,-16 140,-9 241,23 20,6 43,16 68,30 25,15 52,30 81,46 29,17 60,32 92,44 32,13 65,21 98,25 34,4 68,0 102,-11 12,12 20,26 25,43 4,17 6,35 5,55 -1,21 -5,41 -11,62 -11,33 -28,60 -52,81 -23,21 -51,37 -82,47 -32,10 -64,16 -98,17 -34,2 -67,0 -98,-5 -31,-6 -59,-14 -83,-25 -23,-11 -41,-23 -52,-37 -18,-13 -35,-25 -52,-35 -17,-10 -32,-14 -45,-14 -13,1 -22,11 -29,30 -3,14 -4,29 0,44 4,15 10,30 19,45 9,14 18,27 29,37 35,11 72,22 111,35 40,13 77,26 113,40 36,15 67,29 92,44 25,16 42,32 49,50 9,18 7,36 -4,53 -12,17 -35,31 -68,44 -17,9 -36,16 -56,21 -20,4 -41,9 -64,13 -23,3 -47,9 -71,16l-277 906c1,21 6,38 14,51 9,13 20,26 33,38 14,13 29,29 45,48 15,20 19,40 12,59 -6,19 -20,34 -41,46 -21,12 -46,18 -75,17 -16,2 -36,-1 -60,-9 -24,-8 -51,-17 -79,-29 -28,-11 -56,-21 -83,-30 -26,-8 -52,-14 -76,-18 -24,-5 -48,-11 -72,-18 -23,-6 -48,-17 -72,-31 -15,-6 -29,-16 -41,-31 -12,-15 -21,-32 -25,-50 -4,-18 -3,-35 4,-49 7,-15 22,-25 44,-29 16,-3 33,-6 51,-9 17,-3 34,-9 48,-18 14,-9 25,-24 31,-43z"/>
   <path class="fil1" d="M7839 12959c7,-26 18,-48 34,-63 16,-15 40,-23 72,-25 32,-1 75,4 129,18 16,3 33,8 53,15 20,7 39,16 57,28 17,12 30,28 39,48 8,20 9,45 2,76 -7,27 -21,48 -41,62 -21,14 -46,22 -75,24 -30,2 -61,-1 -95,-10 -35,-8 -68,-19 -98,-33 -29,-14 -51,-32 -66,-54 -15,-23 -19,-51 -11,-86zm-340 1453l244 -979c-38,-20 -68,-42 -88,-66 -20,-24 -31,-46 -33,-66 -2,-21 5,-35 21,-45 17,-9 43,-10 79,-1l427 106c41,11 72,25 93,42 21,16 30,34 28,51 -3,18 -18,33 -48,45 -28,13 -73,19 -132,21l-239 958c-2,10 0,20 7,31 6,10 15,21 26,32 11,11 22,22 33,33 12,13 22,25 30,38 23,20 32,39 27,54 -5,16 -18,29 -41,38 -22,9 -48,14 -78,14 -28,0 -54,-4 -78,-10 -24,-6 -48,-14 -71,-22 -23,-9 -48,-17 -74,-24 -28,-6 -55,-12 -83,-15 -27,-4 -52,-9 -77,-15 -24,-6 -46,-14 -65,-26 -15,-9 -29,-20 -42,-34 -13,-12 -23,-26 -30,-40 -6,-14 -7,-27 -1,-38 5,-11 19,-19 41,-25 15,-4 29,-7 42,-13 12,-4 24,-10 37,-18 13,-7 28,-16 45,-26zm781 -298c5,-39 15,-84 29,-136 13,-51 33,-105 58,-160 25,-56 58,-109 98,-160 41,-51 90,-96 149,-133 59,-39 129,-66 211,-83 81,-16 176,-18 283,-5 18,3 42,7 70,14 29,7 60,16 93,28 34,12 67,27 99,46 32,19 61,42 85,70 25,27 44,60 55,97 12,37 15,80 7,129 -8,48 -25,89 -52,123 -27,34 -59,59 -96,74 -38,16 -78,20 -120,14 -41,-7 -74,-19 -99,-37 -24,-17 -44,-35 -58,-54 -14,-20 -25,-36 -34,-49 -9,-14 -18,-20 -28,-19 -9,1 -21,12 -37,35 -18,-20 -29,-41 -32,-62 -3,-23 0,-43 8,-62 8,-19 21,-34 37,-45 17,-11 35,-15 56,-12 21,4 41,9 58,15 17,6 33,11 47,15 14,4 26,5 37,1 10,-2 20,-11 28,-26 7,-15 6,-31 -2,-47 -8,-16 -22,-32 -41,-47 -19,-16 -42,-29 -66,-39 -26,-11 -52,-19 -77,-23 -59,-9 -111,-7 -156,6 -46,13 -86,34 -120,64 -34,29 -63,65 -87,106 -25,42 -44,87 -59,135 -15,49 -27,98 -35,149 -13,57 -14,109 -4,155 9,46 29,87 56,123 28,36 63,67 103,93 41,26 85,47 133,63 48,17 97,29 148,37 75,12 140,11 192,-1 53,-12 96,-31 128,-58 31,-27 54,-58 66,-93 31,26 58,53 79,80 21,26 36,56 44,88 9,31 10,68 4,109 -4,25 -12,52 -24,80 -13,28 -30,56 -52,82 -22,27 -49,50 -81,70 -33,20 -72,34 -116,41 -45,9 -96,8 -154,0 -28,-5 -54,-11 -78,-18 -23,-7 -47,-15 -71,-22 -24,-7 -50,-13 -77,-18 -28,-4 -62,-6 -101,-5 -39,0 -79,-2 -121,-4 -41,-3 -79,-10 -114,-22 -55,-27 -100,-61 -137,-103 -37,-42 -66,-89 -87,-141 -21,-51 -36,-104 -44,-159 -9,-54 -13,-108 -12,-159 0,-52 4,-98 11,-140zm2254 485l-27 -504 -35 -672c-2,-28 -12,-51 -30,-68 -17,-18 -39,-32 -65,-42 -26,-11 -53,-21 -80,-31 -26,-10 -50,-22 -70,-37 -20,-14 -33,-34 -40,-58 0,-17 8,-33 23,-47 16,-14 37,-27 65,-38 27,-12 57,-22 92,-30 34,-9 69,-15 105,-20 37,-5 72,-9 106,-11l778 -41c67,-3 124,-3 167,-1 45,3 79,9 105,18 25,9 43,21 53,36 11,15 17,34 17,55 1,24 -8,50 -28,78 -19,28 -45,56 -79,86 -34,30 -71,59 -113,89 -42,29 -86,58 -131,85 -44,27 -87,53 -129,76 -42,24 -79,45 -112,62 -32,19 -58,32 -75,43 -40,24 -66,45 -77,63 -11,18 -10,30 1,35 12,5 31,1 59,-15 20,-14 49,-27 84,-40 35,-14 74,-24 115,-31 42,-6 82,-6 122,1 40,7 75,24 105,51 30,28 51,68 63,122 1,21 -1,43 -5,67 -5,23 -15,44 -29,64 -14,19 -35,33 -61,42 -2,-28 -12,-49 -29,-62 -17,-14 -38,-20 -63,-18 -26,1 -52,10 -80,25 -27,16 -53,29 -78,40 -24,11 -50,19 -78,25 -27,7 -58,11 -93,12 -37,2 -69,-2 -95,-12 -28,-11 -50,-25 -68,-43 -17,-18 -31,-38 -40,-59 -9,-21 -14,-43 -15,-64 -1,-28 4,-54 14,-79 11,-25 25,-48 43,-71 17,-22 36,-44 57,-67 20,-22 46,-46 78,-71 31,-25 64,-51 100,-77 34,-27 67,-52 98,-78 31,-25 56,-49 75,-71 19,-23 29,-42 28,-60 -1,-20 -10,-37 -26,-49 -17,-13 -37,-22 -61,-29 -25,-6 -50,-10 -76,-13 -26,-1 -50,-2 -71,0 -29,1 -58,5 -88,13 -29,7 -54,19 -75,36 -22,16 -36,38 -42,66l16 314c-35,33 -64,69 -86,106 -22,37 -35,75 -39,113 -4,39 4,77 24,115 20,38 55,75 103,109l21 398c3,37 16,66 41,88 25,21 56,37 95,46 39,9 81,14 127,16 45,1 89,0 133,-2 43,-3 82,-5 116,-7 32,-1 64,-4 97,-7 32,-3 63,-9 92,-18 29,-10 54,-23 75,-42 21,-18 36,-43 44,-75 30,5 55,17 78,33 23,16 41,40 56,71 14,31 22,71 25,120 0,63 -14,113 -41,152 -26,39 -63,69 -110,89 -47,21 -100,35 -161,43 -61,8 -125,12 -193,13 -68,0 -136,0 -205,-1 -69,0 -135,0 -199,3 -35,2 -75,5 -120,9 -44,4 -90,7 -138,11 -48,3 -94,4 -141,4 -45,0 -88,-3 -127,-8 -39,-6 -72,-15 -98,-28 -27,-14 -44,-32 -53,-56 -4,-15 0,-27 11,-39 11,-12 27,-24 47,-37 20,-11 43,-24 67,-37 24,-14 48,-29 70,-46 23,-16 42,-36 57,-57 15,-22 24,-46 27,-74zm1436 -342c-5,-32 -9,-73 -11,-122 -2,-49 1,-103 7,-162 6,-59 18,-119 36,-179 18,-60 43,-116 76,-169 34,-53 76,-98 129,-136 52,-37 116,-63 191,-77 38,-6 73,-6 106,1 34,7 65,17 94,31 29,14 56,28 81,43 25,15 48,26 69,36 21,9 40,12 57,10 -14,-18 -28,-32 -43,-42 -15,-10 -33,-19 -56,-25 -15,-5 -24,-14 -29,-27 -4,-13 2,-26 16,-40 14,-13 42,-24 82,-32l392 -69c42,-2 72,2 90,10 18,9 27,20 28,34 1,14 -4,28 -15,41 -11,14 -24,25 -39,34 -19,9 -34,17 -45,24 -11,6 -18,14 -22,25 -3,11 -3,26 0,47l230 1303c34,-22 66,-32 96,-32 29,1 54,11 74,29 19,18 30,44 34,75 4,33 -4,69 -23,110 -19,-18 -35,-25 -46,-24 -12,2 -23,11 -32,27 -9,15 -18,34 -29,58 -10,23 -24,46 -40,71 -11,17 -22,32 -32,47 -10,15 -24,28 -42,40 -18,11 -43,20 -77,26 -53,9 -98,-4 -133,-41 -36,-37 -62,-97 -77,-179l-54 -310c-26,36 -64,65 -113,87 -50,22 -110,39 -183,51 -108,19 -204,18 -287,-3 -83,-20 -155,-58 -214,-112 -60,-54 -111,-121 -151,-203 -40,-81 -72,-173 -95,-276zm966 22l-109 -620c-33,5 -61,5 -84,1 -24,-4 -45,-12 -63,-21 -18,-10 -36,-19 -54,-29 -17,-10 -37,-17 -57,-22 -21,-5 -46,-5 -75,-1 -62,12 -113,41 -152,88 -40,47 -66,108 -79,184 -14,75 -11,162 5,259 11,58 28,108 52,150 24,43 51,78 83,106 31,29 63,51 97,67 33,16 65,26 95,31 30,6 56,6 78,2 42,-1 80,-11 113,-30 34,-20 64,-44 89,-73 24,-30 45,-60 61,-92zm824 -83l-232 -808c-5,-19 -16,-33 -31,-42 -14,-9 -30,-16 -49,-19 -18,-4 -35,-7 -51,-9 -22,-2 -37,-7 -46,-15 -9,-9 -10,-19 -3,-32 6,-13 22,-27 46,-41l344 -99c25,-7 45,-10 58,-8 14,3 25,9 32,21 7,12 13,28 18,49 5,20 12,46 20,76l209 729c4,15 10,30 15,46 7,16 15,30 27,42 11,12 26,20 46,24 19,5 43,2 73,-6 30,-9 59,-22 86,-38 27,-17 53,-34 76,-53 23,-18 45,-34 65,-49 20,-14 37,-24 52,-29l-220 -767c-3,-13 -11,-24 -22,-31 -12,-7 -26,-14 -44,-20 -18,-5 -39,-12 -62,-20 -24,-8 -38,-18 -41,-31 -2,-13 5,-26 21,-39 17,-14 42,-25 76,-35l426 -122c26,-7 47,-9 63,-5 15,4 25,13 28,25 4,12 1,27 -9,45 -8,13 -17,25 -29,35 -11,11 -23,22 -33,33 -11,11 -19,23 -24,37 -5,14 -5,30 0,50l260 908c7,20 15,34 25,42 11,7 24,13 38,18 14,4 29,11 46,20 24,5 41,13 51,25 10,11 14,25 13,39 -2,14 -9,28 -20,40 -12,12 -28,22 -47,28 -21,5 -44,10 -69,14 -25,3 -51,7 -78,11 -28,5 -55,11 -83,18 -25,8 -48,16 -68,25 -19,10 -39,19 -58,28 -20,9 -44,18 -70,26 -27,8 -50,9 -68,5 -19,-3 -30,-13 -35,-28 -4,-15 1,-35 15,-60 9,-17 20,-34 33,-49 13,-16 25,-33 35,-50 10,-17 16,-37 17,-59 -36,11 -64,27 -84,49 -21,22 -38,47 -53,75 -14,28 -31,57 -48,86 -18,29 -42,56 -72,80 -30,25 -71,45 -123,60 -25,8 -52,15 -83,22 -31,6 -63,8 -97,6 -34,-1 -66,-11 -99,-28 -33,-17 -63,-45 -91,-84 -28,-39 -52,-92 -72,-161zm954 -1717c-11,-25 -15,-48 -12,-70 3,-22 17,-43 42,-64 24,-21 61,-43 112,-66 15,-7 32,-13 51,-21 20,-7 40,-11 62,-12 21,-1 41,3 61,14 18,10 35,29 48,58 11,26 13,51 5,74 -7,24 -22,46 -44,66 -22,19 -49,36 -81,50 -33,15 -65,26 -97,34 -31,7 -60,6 -86,-2 -25,-9 -46,-29 -61,-61zm627 1355l-411 -922c-42,7 -79,8 -110,2 -31,-6 -53,-17 -67,-32 -14,-14 -17,-30 -10,-48 7,-17 27,-34 61,-49l402 -180c39,-16 72,-25 98,-24 27,0 45,8 54,23 9,16 6,37 -9,65 -15,28 -46,60 -92,98l402 902c4,9 12,16 24,20 11,5 25,7 40,9 16,2 31,4 47,6 17,2 32,6 47,11 30,3 49,11 54,27 6,15 4,33 -8,54 -12,21 -30,41 -54,60 -22,17 -45,30 -67,40 -23,9 -46,18 -69,26 -24,7 -48,16 -73,27 -26,12 -51,25 -75,39 -24,13 -47,25 -70,36 -23,10 -45,17 -68,19 -17,2 -35,2 -53,-1 -18,-2 -35,-6 -48,-13 -14,-7 -22,-17 -25,-29 -3,-12 3,-27 17,-45 10,-12 18,-24 25,-36 7,-11 13,-23 18,-37 6,-14 13,-30 20,-48zm1032 102l-735 -1224c-11,-18 -23,-29 -36,-33 -13,-4 -28,-6 -46,-4 -17,2 -39,3 -64,3 -25,-2 -42,-10 -52,-23 -9,-14 -9,-30 2,-50 10,-20 33,-41 69,-63l325 -195c29,-17 53,-24 70,-22 17,3 28,10 32,23 5,13 3,27 -6,41 -8,13 -15,27 -19,43 -6,16 -9,32 -9,47 0,15 4,29 11,42 9,-17 18,-37 26,-61 8,-24 17,-50 26,-79 11,-29 23,-59 39,-89 16,-31 37,-60 63,-89 25,-29 57,-55 96,-79 85,-51 173,-76 263,-73 91,2 182,36 274,100 91,64 182,163 271,297 55,91 92,184 112,278 21,94 25,184 13,270 -12,87 -38,163 -80,230 -42,67 -98,119 -169,156 -72,43 -139,68 -201,74 -61,7 -116,-2 -164,-28 -49,-26 -89,-67 -122,-121 -8,-15 -13,-32 -15,-50 -2,-19 -3,-39 -3,-59 0,-20 -1,-41 -4,-60 -2,-20 -8,-39 -18,-56 -10,-17 -25,-31 -46,-44 24,-14 48,-26 75,-34 26,-8 54,-9 82,-5 28,5 57,19 87,42 12,10 23,19 32,26 9,7 19,11 29,13 9,1 22,-1 36,-6 14,-5 33,-15 56,-28 41,-32 72,-68 91,-108 19,-40 28,-83 28,-130 0,-46 -8,-93 -25,-143 -16,-49 -40,-98 -70,-148 -35,-58 -74,-104 -116,-138 -42,-34 -84,-57 -128,-69 -43,-12 -84,-16 -124,-10 -40,5 -76,17 -108,36 -30,19 -61,45 -89,77 -29,32 -54,68 -76,107 -22,38 -38,77 -47,115l303 506c-7,29 -8,62 -1,97 7,35 18,69 37,102 18,32 40,60 68,83 27,23 57,38 92,43l171 286c8,12 19,19 34,22 15,3 31,4 49,2 17,-1 34,-3 51,-5 31,-2 53,6 66,22 12,15 16,35 11,58 -5,24 -18,47 -38,68 -21,20 -43,37 -67,51 -23,13 -46,26 -69,36 -23,10 -43,21 -61,31 -14,9 -28,20 -44,34 -16,13 -34,27 -53,40 -20,14 -42,26 -66,35 -25,9 -53,14 -84,14 -22,5 -40,3 -56,-4 -16,-6 -27,-18 -33,-34 -5,-16 -3,-35 6,-58 12,-23 22,-42 32,-56 10,-15 17,-27 21,-38 4,-11 2,-22 -5,-34z"/>
   <path class="fil1" d="M17549 12705l-580 -691c-18,-21 -37,-34 -58,-40 -21,-5 -43,-7 -67,-6 -24,0 -50,0 -79,-2 -21,-2 -35,-8 -43,-18 -8,-9 -10,-22 -5,-37 6,-15 19,-32 40,-50l370 -310c27,-23 50,-33 68,-33 17,0 28,9 35,25 6,16 6,37 -2,62 -7,23 -13,44 -18,63 -5,18 -6,35 -4,52 2,16 10,32 23,48 20,-34 35,-68 45,-101 10,-33 18,-66 25,-100 7,-34 17,-68 30,-103 13,-35 32,-71 58,-109 27,-37 64,-76 112,-116 43,-36 85,-59 124,-70 40,-10 77,-9 112,3 34,12 64,34 92,67 18,-11 33,-30 46,-57 13,-28 25,-60 37,-98 11,-37 25,-77 40,-119 15,-41 34,-82 57,-121 22,-40 51,-74 87,-105 48,-41 94,-69 138,-84 45,-15 88,-14 131,2 44,16 88,51 132,104l566 675c10,10 22,16 38,17 16,1 34,0 53,-3 20,-2 40,-2 60,-1 25,-1 43,2 54,11 10,8 15,18 16,32 0,13 -2,27 -7,42 -5,14 -10,27 -15,39 -6,17 -14,32 -24,43 -10,10 -22,20 -37,29 -15,8 -32,18 -52,30 -19,11 -41,27 -65,47 -24,20 -44,40 -60,58 -17,19 -32,36 -46,52 -14,16 -29,29 -46,40 -15,11 -34,19 -57,25 -31,7 -56,7 -75,0 -18,-6 -31,-18 -37,-36 -6,-17 -5,-38 2,-63 7,-15 13,-31 20,-47 7,-17 11,-34 11,-51 0,-16 -6,-33 -18,-49l-460 -547c-14,-24 -29,-42 -47,-54 -18,-12 -37,-19 -56,-22 -20,-2 -39,-1 -56,4 -18,5 -33,13 -45,23 -20,18 -36,38 -50,63 -14,25 -26,51 -37,78 -12,28 -24,54 -38,79 -14,25 -30,45 -50,62l527 628c14,6 28,8 41,7 14,-2 28,-4 43,-7 14,-3 31,-3 51,-1 20,1 36,6 47,14 12,8 18,22 19,39 1,17 -5,40 -16,68 -10,22 -22,40 -35,53 -14,14 -29,26 -45,35 -16,9 -32,19 -49,28 -17,9 -33,21 -49,34 -22,18 -43,38 -63,58 -20,21 -42,41 -65,61 -23,20 -50,38 -81,56 -27,12 -49,14 -69,7 -19,-6 -32,-19 -40,-39 -8,-19 -8,-42 -2,-67 12,-18 21,-36 27,-52 7,-17 9,-33 8,-48 -1,-16 -9,-31 -22,-47l-459 -548c-27,-31 -51,-52 -72,-62 -21,-11 -40,-13 -59,-6 -19,6 -39,19 -60,37 -16,14 -32,33 -48,57 -16,24 -32,50 -49,78 -16,28 -33,55 -51,80 -18,25 -36,47 -56,64l501 597c17,20 34,32 51,34 16,3 33,1 48,-6 16,-5 32,-11 47,-15 31,-7 54,-6 70,3 16,10 24,25 25,47 2,21 -4,46 -17,76 -9,21 -21,39 -36,54 -15,15 -32,28 -50,39 -18,11 -36,22 -54,33 -19,10 -36,22 -52,35 -16,15 -35,32 -54,52 -20,21 -42,41 -66,61 -23,20 -48,37 -74,50 -26,12 -50,18 -72,18 -21,-1 -36,-9 -44,-23 -9,-14 -7,-36 5,-65 6,-24 14,-44 20,-60 7,-16 10,-31 11,-44 -1,-14 -7,-29 -20,-45zm1385 -1780c-88,-69 -160,-144 -216,-225 -56,-82 -95,-165 -117,-251 -23,-86 -26,-170 -11,-253 15,-82 49,-159 104,-230l234 -299c42,-53 80,-92 115,-118 35,-25 67,-40 97,-46 29,-4 56,-2 80,7 25,9 47,22 68,39 28,21 51,47 68,76 18,28 29,65 35,108 6,44 5,98 -2,163 -2,25 -7,56 -15,93 -9,37 -18,77 -28,121 -11,43 -19,89 -27,137 -8,48 -12,97 -12,145 -1,49 5,96 16,142 11,45 30,88 57,127 56,-22 105,-50 148,-84 41,-33 79,-71 111,-113 35,-46 61,-90 78,-133 17,-43 26,-84 28,-121 2,-37 -2,-70 -12,-97 -9,-27 -22,-47 -39,-61 28,-13 56,-25 86,-34 29,-10 60,-12 93,-7 33,5 69,22 107,52 17,13 36,30 56,52 21,23 40,49 58,80 17,30 29,64 36,101 7,37 5,76 -6,119 -11,42 -34,87 -69,133 -22,27 -43,51 -63,71 -19,19 -38,38 -57,56 -18,18 -36,38 -53,60 -12,16 -25,35 -39,58 -13,23 -29,49 -47,77 -18,28 -40,59 -65,92 -31,40 -70,71 -117,93 -47,22 -99,35 -155,40 -56,5 -114,1 -175,-10 -60,-11 -121,-30 -180,-57 -60,-27 -117,-61 -170,-103zm297 -245c-40,-51 -66,-102 -79,-155 -12,-52 -17,-105 -12,-158 4,-52 11,-103 22,-153 10,-49 18,-96 25,-139 6,-44 5,-83 -5,-118 -8,-35 -30,-63 -64,-87 -25,-19 -49,-27 -72,-25 -24,2 -46,11 -68,26 -22,15 -42,34 -62,56 -18,22 -37,44 -53,66 -41,53 -68,103 -81,152 -14,49 -17,95 -9,139 7,43 21,84 43,122 22,38 47,72 76,103 30,31 60,58 90,81 28,22 57,40 88,53 31,15 61,24 90,31 28,6 51,8 71,6zm1069 -918l-823 -367c-20,-9 -39,-13 -58,-12 -18,1 -35,5 -51,12 -16,7 -29,16 -41,27 -11,11 -26,20 -42,24 -18,5 -33,5 -48,0 -14,-4 -24,-14 -29,-30 -5,-15 -1,-37 11,-66l188 -422c15,-33 29,-57 43,-71 13,-13 25,-18 36,-16 11,2 20,10 28,23 7,14 13,30 16,49 3,25 6,49 8,69 2,21 6,38 12,51 7,12 18,18 33,18 13,-31 17,-59 12,-86 -6,-26 -14,-53 -27,-81 -13,-27 -25,-58 -34,-92 -11,-34 -14,-73 -11,-118 3,-45 18,-98 44,-159 26,-58 58,-107 99,-144 40,-37 88,-60 145,-66 57,-7 124,6 200,39l751 335c21,1 38,-1 52,-7 14,-7 28,-16 42,-27 14,-12 31,-25 52,-38 22,-14 41,-18 58,-13 16,6 28,20 36,45 8,25 10,59 7,103 -3,22 -9,43 -18,63 -10,20 -20,40 -32,61 -13,20 -25,43 -36,68 -11,27 -22,55 -33,85 -11,29 -24,58 -39,85 -16,28 -35,52 -59,73 -25,19 -46,28 -64,28 -18,-1 -32,-7 -42,-19 -10,-12 -16,-27 -17,-43 -1,-23 -3,-46 -7,-68 -4,-23 -14,-43 -28,-62l-710 -316c-37,-17 -70,-19 -99,-7 -29,13 -54,43 -75,90 -12,28 -19,55 -21,80 -2,25 -2,50 0,75 3,25 3,51 3,80 -1,28 -6,60 -15,95l748 334c10,-5 21,-11 34,-21 13,-10 27,-21 43,-32 16,-10 33,-20 52,-27 21,-8 37,-11 50,-7 12,4 22,12 28,24 6,12 10,26 11,42 2,16 2,33 0,50 -5,28 -14,55 -25,80 -12,24 -23,48 -36,69 -13,22 -24,42 -32,61 -9,20 -17,41 -24,66 -8,23 -17,48 -28,73 -11,25 -25,50 -43,73 -13,17 -28,31 -44,42 -16,12 -31,18 -46,20 -16,3 -29,-1 -42,-11 -12,-10 -22,-27 -28,-52 -4,-25 -6,-47 -6,-64 0,-18 -2,-32 -5,-43 -3,-12 -11,-20 -24,-25zm567 -1504l-898 -224c-8,6 -16,13 -23,23 -7,10 -15,21 -24,32 -10,12 -23,23 -39,34 -9,5 -19,8 -30,10 -11,3 -22,1 -32,-3 -10,-4 -16,-13 -21,-28 -4,-23 -5,-45 -2,-66 3,-22 7,-43 13,-63 -20,-6 -38,-9 -54,-11 -16,-2 -31,0 -45,6 -14,6 -26,18 -38,37 -4,10 -11,20 -22,28 -11,8 -24,13 -38,14 -14,0 -27,-4 -39,-16 -11,-10 -19,-30 -23,-57 0,-18 -3,-40 -8,-67 -5,-27 -11,-56 -19,-87 -8,-30 -17,-61 -26,-90 -9,-29 -18,-55 -27,-78 -9,-22 -16,-39 -23,-50 -15,-26 -21,-47 -20,-65 2,-17 8,-30 19,-38 10,-9 23,-12 35,-10 14,2 25,10 33,23 10,15 21,28 34,37 12,9 27,16 43,22 17,5 35,10 56,15l285 71c-5,-19 -8,-42 -10,-71 -1,-29 0,-58 2,-89 4,-32 10,-60 19,-86 10,-26 24,-46 42,-59 18,-14 41,-18 69,-11 28,7 51,17 69,28 17,11 33,22 46,34 13,11 27,21 42,29 14,8 33,14 56,16 22,1 51,-2 88,-10 14,26 23,52 25,78 2,26 -1,50 -10,73 -9,22 -21,42 -38,57 -17,16 -36,27 -59,33 -16,3 -35,4 -56,1 -21,-3 -43,-9 -66,-17 -22,-8 -43,-18 -62,-30 -3,10 -5,20 -8,30 -2,9 -4,19 -7,29l898 224c13,3 26,0 38,-8 12,-8 24,-20 35,-33 12,-14 22,-27 33,-39 17,-23 33,-36 48,-39 16,-4 30,0 43,10 12,10 22,25 30,44 7,18 11,39 11,61 2,22 2,43 -1,67 -2,22 -7,49 -14,78 -6,29 -15,64 -25,104 -10,40 -19,75 -27,104 -8,29 -16,54 -24,76 -9,22 -19,42 -31,61 -21,23 -41,37 -59,43 -18,5 -34,3 -46,-6 -12,-10 -20,-25 -22,-47 -2,-34 -12,-63 -27,-86 -16,-24 -39,-40 -69,-48zm-718 -913c-21,-2 -42,-11 -62,-28 -20,-16 -38,-41 -54,-75 -15,-33 -26,-75 -32,-128 -6,-52 -6,-114 1,-187l62 -584c4,-35 12,-67 25,-94 13,-27 31,-48 54,-62 23,-14 52,-20 87,-17 35,4 61,11 78,22 18,11 29,26 34,46 5,18 5,42 2,71 -4,37 -12,63 -24,80 -11,16 -25,27 -40,31 -15,5 -30,8 -44,9 -15,1 -28,5 -38,12 -11,7 -17,20 -20,41l-33 313c-2,21 -2,42 1,61 3,20 10,36 21,49 10,13 26,20 47,23 21,2 41,-8 60,-28 19,-21 37,-49 56,-85 19,-36 38,-76 58,-120 20,-44 40,-89 62,-134 22,-46 46,-89 71,-129 42,-66 89,-123 141,-171 53,-49 115,-85 186,-108 71,-23 155,-30 252,-20 69,8 128,25 178,52 50,27 90,60 122,101 31,41 53,86 67,136 12,49 16,101 11,153 -4,28 -8,57 -15,85 -6,29 -13,60 -20,93 -7,33 -12,71 -17,112 -4,42 -7,82 -8,121 0,38 0,75 0,111 -1,35 -3,70 -6,105 -6,52 -21,97 -46,134 -24,37 -54,67 -89,89 -35,23 -70,39 -107,48 -38,9 -72,12 -104,9 -33,-4 -61,-12 -84,-24 -23,-12 -43,-25 -62,-41 -18,-15 -37,-29 -56,-43 -19,-13 -42,-24 -68,-31 -26,-7 -58,-8 -96,-4 -1,-43 3,-83 12,-120 10,-37 24,-69 42,-96 19,-27 42,-48 70,-62 29,-14 60,-19 97,-16 21,3 39,3 55,-1 16,-3 30,-12 42,-26 12,-14 23,-36 31,-67 9,-30 16,-71 21,-123 3,-27 5,-56 4,-87 0,-31 -4,-62 -12,-90 -7,-29 -19,-54 -37,-74 -17,-20 -41,-32 -72,-35 -28,-4 -53,-3 -75,2 -21,5 -44,17 -67,36 -24,19 -51,47 -83,85 -25,30 -50,68 -77,112 -27,44 -56,92 -86,143 -30,51 -61,102 -93,152 -33,50 -66,96 -102,137 -34,41 -70,75 -107,99 -37,25 -75,37 -114,37z"/>
   <g>
    <path class="fil2" d="M13934 1503l17 13c-177,-5 -389,-8 -640,-8 -1422,0 -4076,413 -6074,1559 -868,499 -1640,1118 -2146,1831 -476,670 -714,1428 -714,2099 0,674 48,1320 416,1916 1119,1814 3780,3174 7021,3499 -427,49 -864,75 -1309,75 -4669,0 -8453,-2795 -8453,-6241 0,-3120 3102,-5706 7153,-6167 1831,185 3443,682 4729,1424z"/>
    <path class="fil3" d="M7100 10983l-17 -12c177,5 389,8 640,8 1422,0 4076,-413 6074,-1560 868,-498 1640,-1117 2146,-1831 476,-670 714,-1427 714,-2099 0,-674 -48,-1319 -416,-1916 -1119,-1814 -3780,-3174 -7021,-3498 427,-49 864,-75 1309,-75 4668,0 8453,2794 8453,6241 0,3120 -3102,5705 -7153,6167 -1831,-185 -3443,-683 -4729,-1425z"/>
   </g>
   <g>
    <path class="fil4 str0" d="M5633 5931c78,-121 166,-236 264,-345l2 -2c151,-163 308,-307 472,-430 165,-125 338,-230 518,-315l0 0c179,-85 357,-152 536,-200 183,-49 369,-80 558,-93 183,-13 367,-10 551,8 185,18 365,51 540,98 179,48 351,109 517,183 19,8 38,17 57,26l-18 -2427 0 -10c2,-57 13,-108 31,-153 24,-60 60,-110 106,-149l0 0c37,-32 78,-57 122,-75 49,-18 99,-28 151,-28 52,0 102,10 150,28 45,18 85,43 122,75l0 0c47,39 83,89 107,149 18,45 29,96 31,153l0 7 31 3001c47,63 89,132 128,206 52,102 97,216 133,342 35,122 61,246 78,375 17,127 27,261 29,403 2,140 -4,280 -18,420 -13,139 -34,281 -63,425 -30,145 -66,286 -110,422 -38,118 -82,235 -132,349l10 1143 0 13c-2,54 -13,106 -31,151 -24,59 -59,109 -106,149l0 0c-39,34 -82,59 -129,76 -47,17 -95,26 -143,26 -49,0 -97,-9 -144,-26 -47,-17 -90,-42 -129,-76l0 0c-47,-40 -82,-90 -106,-149 -18,-46 -29,-97 -31,-151l0 -8 -2 -95 -25 19 -19 14c-173,107 -348,199 -527,274 -180,77 -359,135 -536,173l0 -1c-178,40 -350,66 -516,78 -166,12 -330,11 -493,-4l0 1c-156,-13 -308,-37 -455,-70 -144,-32 -281,-75 -410,-126 -132,-53 -248,-109 -350,-169 -108,-64 -202,-134 -284,-209l0 -1c-108,-99 -206,-204 -294,-315 -90,-114 -169,-234 -239,-358 -68,-123 -127,-251 -176,-382 -49,-132 -88,-266 -116,-403l0 -1c-29,-138 -47,-276 -54,-412 -8,-137 -5,-275 8,-415 13,-143 37,-281 70,-412 33,-133 78,-265 134,-398 57,-134 124,-260 200,-379zm3199 3042c135,-58 270,-130 404,-216l3 -3c51,-32 98,-66 141,-103 43,-39 85,-82 124,-131l4 -4c42,-50 81,-105 119,-163 27,-43 53,-87 77,-133l-49 -2430c-87,-54 -177,-104 -271,-150 -136,-67 -273,-121 -411,-163l-2 0c-141,-44 -283,-75 -426,-94 -142,-18 -287,-25 -434,-19l0 0c-145,6 -288,27 -429,61 -140,34 -279,83 -415,145l-1 1c-138,62 -270,140 -395,233 -128,95 -252,207 -372,337l0 -1c-66,74 -125,151 -177,232 -50,79 -95,164 -133,255l-1 2c-38,89 -68,181 -92,275 -25,98 -42,194 -51,289l1 0c-10,104 -12,205 -7,301 5,96 17,194 37,295l-1 0c20,96 46,190 80,283 33,91 73,180 121,269l0 0c49,89 103,172 162,247 62,77 130,150 205,218 40,36 91,72 154,107 67,38 146,75 236,110 87,33 185,62 293,85 106,24 221,41 343,52 121,10 244,11 370,1 128,-9 260,-29 397,-59 131,-29 263,-72 396,-129zm6081 1082c2,-54 15,-106 38,-158l3 -7c32,-69 53,-141 64,-218 11,-77 11,-159 -1,-244l0 -2c-12,-93 -35,-188 -67,-285 -34,-102 -79,-205 -133,-310 -57,-108 -122,-215 -194,-322 -74,-108 -155,-215 -244,-321 -182,-216 -386,-420 -613,-612l-1 -1c-114,-97 -229,-187 -344,-271 -117,-83 -237,-162 -360,-236l-1 -1c-116,-71 -235,-135 -357,-193 -121,-57 -240,-106 -357,-147l0 1c-117,-40 -227,-70 -332,-89 -13,-3 -26,-5 -38,-7 -4,80 -8,157 -11,230 -9,179 -19,346 -29,497l0 2c-13,179 -25,334 -35,465 -13,157 -25,300 -36,428l-1 2c-14,153 -27,285 -37,383 -13,139 -25,252 -35,333l0 0c-13,122 -23,211 -30,270 -5,47 -14,115 -25,205 -12,95 -19,134 -19,137l-1 11c-2,58 -15,111 -36,158l0 1c-30,64 -74,114 -131,151l0 0c-45,29 -91,48 -142,57 -47,9 -93,9 -140,2l-3 -1c-48,-7 -92,-21 -132,-42l0 -1c-43,-22 -81,-49 -112,-80 -39,-39 -69,-84 -91,-136 -19,-46 -30,-97 -32,-153l-1 -11c0,-7 2,-33 8,-77l0 -2 16 -120 -1 0 2 -14c14,-119 33,-282 49,-442l0 -2c12,-113 24,-222 34,-321 7,-72 18,-191 33,-371 13,-146 25,-283 35,-413 12,-160 22,-309 32,-453 12,-171 22,-335 31,-492 3,-66 6,-131 9,-196 -47,-20 -88,-52 -123,-93l-7 -8c-23,-30 -43,-63 -60,-100 -16,-34 -27,-71 -35,-108l0 0c-8,-37 -11,-71 -11,-104 0,-40 5,-79 14,-116l5 -15c20,-67 58,-122 110,-165 38,-31 80,-52 126,-64 8,-351 7,-701 -3,-1051 -6,-201 -16,-408 -32,-621 -15,-205 -34,-407 -57,-604 -23,-196 -51,-380 -83,-553 -34,-176 -71,-340 -113,-493l0 0c-16,-56 -22,-110 -17,-163 6,-61 26,-117 58,-168l0 -1c26,-42 59,-78 101,-110l-1 0c41,-31 88,-54 141,-68l0 0c47,-12 93,-17 140,-14 48,4 96,16 143,38l0 1c56,25 103,63 140,112 31,41 55,89 71,145l1 2c50,176 94,362 132,555 37,192 68,392 92,598 24,205 43,414 58,627 15,202 26,419 33,649 7,214 13,432 16,655 2,111 3,221 4,332 115,-18 198,-31 256,-39 153,-23 321,-48 491,-72 145,-21 284,-43 417,-66 139,-23 259,-45 359,-66l0 0c111,-24 212,-50 304,-78 95,-29 186,-61 274,-97l0 0c78,-33 161,-74 247,-124 85,-48 168,-102 249,-162l16 -10c64,-40 130,-62 198,-67l0 0c77,-5 150,12 218,51 54,31 100,70 135,117 37,49 63,103 77,163l3 10c16,77 8,153 -24,228 -28,63 -71,119 -132,165l-5 5c-88,64 -180,124 -275,180 -92,55 -185,105 -279,149 -96,45 -191,85 -282,119 -97,35 -196,67 -298,95 -97,26 -200,50 -309,74 -54,11 -109,22 -164,33l12 7 1 0c145,84 287,175 424,272 137,97 272,201 403,312 129,110 254,225 372,346 119,122 231,248 336,378l0 0c107,131 204,265 291,399 87,135 165,274 234,415 69,142 126,284 170,428 44,144 76,291 94,439 19,151 22,298 7,442 -16,147 -48,290 -97,428l-14 31c-26,52 -58,95 -96,130 -46,42 -99,71 -161,87l0 1c-47,12 -94,17 -141,13 -43,-3 -86,-13 -129,-31l0 1c-50,-20 -94,-48 -132,-83 -33,-32 -61,-70 -82,-112l0 0c-31,-59 -45,-121 -43,-188z"/>
    <path id="1" class="fil5" d="M5633 5931c78,-121 166,-236 264,-345l2 -2c151,-163 308,-307 472,-430 165,-125 338,-230 518,-315l0 0c179,-85 357,-152 536,-200 183,-49 369,-80 558,-93 183,-13 367,-10 551,8 185,18 365,51 540,98 179,48 351,109 517,183 19,8 38,17 57,26l-18 -2427 0 -10c2,-57 13,-108 31,-153 24,-60 60,-110 106,-149l0 0c37,-32 78,-57 122,-75 49,-18 99,-28 151,-28 52,0 102,10 150,28 45,18 85,43 122,75l0 0c47,39 83,89 107,149 18,45 29,96 31,153l0 7 31 3001c47,63 89,132 128,206 52,102 97,216 133,342 35,122 61,246 78,375 17,127 27,261 29,403 2,140 -4,280 -18,420 -13,139 -34,281 -63,425 -30,145 -66,286 -110,422 -38,118 -82,235 -132,349l10 1143 0 13c-2,54 -13,106 -31,151 -24,59 -59,109 -106,149l0 0c-39,34 -82,59 -129,76 -47,17 -95,26 -143,26 -49,0 -97,-9 -144,-26 -47,-17 -90,-42 -129,-76l0 0c-47,-40 -82,-90 -106,-149 -18,-46 -29,-97 -31,-151l0 -8 -2 -95 -25 19 -19 14c-173,107 -348,199 -527,274 -180,77 -359,135 -536,173l0 -1c-178,40 -350,66 -516,78 -166,12 -330,11 -493,-4l0 1c-156,-13 -308,-37 -455,-70 -144,-32 -281,-75 -410,-126 -132,-53 -248,-109 -350,-169 -108,-64 -202,-134 -284,-209l0 -1c-108,-99 -206,-204 -294,-315 -90,-114 -169,-234 -239,-358 -68,-123 -127,-251 -176,-382 -49,-132 -88,-266 -116,-403l0 -1c-29,-138 -47,-276 -54,-412 -8,-137 -5,-275 8,-415 13,-143 37,-281 70,-412 33,-133 78,-265 134,-398 57,-134 124,-260 200,-379zm3199 3042c135,-58 270,-130 404,-216l3 -3c51,-32 98,-66 141,-103 43,-39 85,-82 124,-131l4 -4c42,-50 81,-105 119,-163 27,-43 53,-87 77,-133l-49 -2430c-87,-54 -177,-104 -271,-150 -136,-67 -273,-121 -411,-163l-2 0c-141,-44 -283,-75 -426,-94 -142,-18 -287,-25 -434,-19l0 0c-145,6 -288,27 -429,61 -140,34 -279,83 -415,145l-1 1c-138,62 -270,140 -395,233 -128,95 -252,207 -372,337l0 -1c-66,74 -125,151 -177,232 -50,79 -95,164 -133,255l-1 2c-38,89 -68,181 -92,275 -25,98 -42,194 -51,289l1 0c-10,104 -12,205 -7,301 5,96 17,194 37,295l-1 0c20,96 46,190 80,283 33,91 73,180 121,269l0 0c49,89 103,172 162,247 62,77 130,150 205,218 40,36 91,72 154,107 67,38 146,75 236,110 87,33 185,62 293,85 106,24 221,41 343,52 121,10 244,11 370,1 128,-9 260,-29 397,-59 131,-29 263,-72 396,-129zm6081 1082c2,-54 15,-106 38,-158l3 -7c32,-69 53,-141 64,-218 11,-77 11,-159 -1,-244l0 -2c-12,-93 -35,-188 -67,-285 -34,-102 -79,-205 -133,-310 -57,-108 -122,-215 -194,-322 -74,-108 -155,-215 -244,-321 -182,-216 -386,-420 -613,-612l-1 -1c-114,-97 -229,-187 -344,-271 -117,-83 -237,-162 -360,-236l-1 -1c-116,-71 -235,-135 -357,-193 -121,-57 -240,-106 -357,-147l0 1c-117,-40 -227,-70 -332,-89 -13,-3 -26,-5 -38,-7 -4,80 -8,157 -11,230 -9,179 -19,346 -29,497l0 2c-13,179 -25,334 -35,465 -13,157 -25,300 -36,428l-1 2c-14,153 -27,285 -37,383 -13,139 -25,252 -35,333l0 0c-13,122 -23,211 -30,270 -5,47 -14,115 -25,205 -12,95 -19,134 -19,137l-1 11c-2,58 -15,111 -36,158l0 1c-30,64 -74,114 -131,151l0 0c-45,29 -91,48 -142,57 -47,9 -93,9 -140,2l-3 -1c-48,-7 -92,-21 -132,-42l0 -1c-43,-22 -81,-49 -112,-80 -39,-39 -69,-84 -91,-136 -19,-46 -30,-97 -32,-153l-1 -11c0,-7 2,-33 8,-77l0 -2 16 -120 -1 0 2 -14c14,-119 33,-282 49,-442l0 -2c12,-113 24,-222 34,-321 7,-72 18,-191 33,-371 13,-146 25,-283 35,-413 12,-160 22,-309 32,-453 12,-171 22,-335 31,-492 3,-66 6,-131 9,-196 -47,-20 -88,-52 -123,-93l-7 -8c-23,-30 -43,-63 -60,-100 -16,-34 -27,-71 -35,-108l0 0c-8,-37 -11,-71 -11,-104 0,-40 5,-79 14,-116l5 -15c20,-67 58,-122 110,-165 38,-31 80,-52 126,-64 8,-351 7,-701 -3,-1051 -6,-201 -16,-408 -32,-621 -15,-205 -34,-407 -57,-604 -23,-196 -51,-380 -83,-553 -34,-176 -71,-340 -113,-493l0 0c-16,-56 -22,-110 -17,-163 6,-61 26,-117 58,-168l0 -1c26,-42 59,-78 101,-110l-1 0c41,-31 88,-54 141,-68l0 0c47,-12 93,-17 140,-14 48,4 96,16 143,38l0 1c56,25 103,63 140,112 31,41 55,89 71,145l1 2c50,176 94,362 132,555 37,192 68,392 92,598 24,205 43,414 58,627 15,202 26,419 33,649 7,214 13,432 16,655 2,111 3,221 4,332 115,-18 198,-31 256,-39 153,-23 321,-48 491,-72 145,-21 284,-43 417,-66 139,-23 259,-45 359,-66l0 0c111,-24 212,-50 304,-78 95,-29 186,-61 274,-97l0 0c78,-33 161,-74 247,-124 85,-48 168,-102 249,-162l16 -10c64,-40 130,-62 198,-67l0 0c77,-5 150,12 218,51 54,31 100,70 135,117 37,49 63,103 77,163l3 10c16,77 8,153 -24,228 -28,63 -71,119 -132,165l-5 5c-88,64 -180,124 -275,180 -92,55 -185,105 -279,149 -96,45 -191,85 -282,119 -97,35 -196,67 -298,95 -97,26 -200,50 -309,74 -54,11 -109,22 -164,33l12 7 1 0c145,84 287,175 424,272 137,97 272,201 403,312 129,110 254,225 372,346 119,122 231,248 336,378l0 0c107,131 204,265 291,399 87,135 165,274 234,415 69,142 126,284 170,428 44,144 76,291 94,439 19,151 22,298 7,442 -16,147 -48,290 -97,428l-14 31c-26,52 -58,95 -96,130 -46,42 -99,71 -161,87l0 1c-47,12 -94,17 -141,13 -43,-3 -86,-13 -129,-31l0 1c-50,-20 -94,-48 -132,-83 -33,-32 -61,-70 -82,-112l0 0c-31,-59 -45,-121 -43,-188z"/>
   </g>
  </g>
 </g>
</svg>
